<svg width="148" height="30" viewBox="0 0 148 30" fill="none" xmlns="http://www.w3.org/2000/svg" xmlns:c2pa="http://c2pa.org/manifest"><metadata><c2pa:manifest>AAAWgmp1bWIAAAAeanVtZGMycGEAEQAQgAAAqgA4m3EDYzJwYQAAABZcanVtYgAAAEdqdW1kYzJtYQARABCAAACqADibcQN1cm46YzJwYTo2MzJlNWFlOC03OGExLTRhOTktYmI4ZS0yN2MyNjYxZmE4MmIAAAADl2p1bWIAAAApanVtZGMyYXMAEQAQgAAAqgA4m3EDYzJwYS5hc3NlcnRpb25zAAAAALxqdW1iAAAARGp1bWRjYm9yABEAEIAAAKoAOJtxE2MycGEuaW5ncmVkaWVudC52MwAAAAAYYzJzaHuDpUqhOy8IpOOGtTVwrj4AAABwY2JvcqNpZGM6Zm9ybWF0bWltYWdlL3N2Zyt4bWxqaW5zdGFuY2VJRHgseG1wOmlpZDpmYTQzNGUyMS00ZWU4LTQyNWQtYjZjMy1iOTI1ZWQ3ZDhlMzNscmVsYXRpb25zaGlwaHBhcmVudE9mAAAB4mp1bWIAAABBanVtZGNib3IAEQAQgAAAqgA4m3ETYzJwYS5hY3Rpb25zLnYyAAAAABhjMnNo24+D6xXo4uv61sTTom9yYwAAAZljYm9yomdhY3Rpb25zgqJmYWN0aW9ua2MycGEub3BlbmVkanBhcmFtZXRlcnOha2luZ3JlZGllbnRzgaJjdXJseC1zZWxmI2p1bWJmPWMycGEuYXNzZXJ0aW9ucy9jMnBhLmluZ3JlZGllbnQudjNkaGFzaFgg2v0kbOmEDCsFh3vHYAY1yfZxTOTw4i1T3h8ERuWMblOkZmFjdGlvbngdY29tLmFudGhyb3BpYy5jbGF1ZGUucHJvdmlkZWRqcGFyYW1ldGVyc6F4H2NvbS5hbnRocm9waWMub3JpZ2luLWNvbmZpZGVuY2VndW5rbm93bmtkZXNjcmlwdGlvbnhmQ2xhdWRlIHByb3ZpZGVkIHRoaXMgZmlsZSBhdCB0aGUgcmVxdWVzdCBvZiBhIHVzZXIgYW5kIG1heSBoYXZlIGNyZWF0ZWQgb3IgbW9kaWZpZWQgdGhlIGZpbGUgY29udGVudHMubXNvZnR3YXJlQWdlbnShZG5hbWVmQ2xhdWRlcmFsbEFjdGlvbnNJbmNsdWRlZPUAAADIanVtYgAAAEBqdW1kY2JvcgARABCAAACqADibcRNjMnBhLmhhc2guZGF0YQAAAAAYYzJzaN0g8w0OoVTKPodRrFYNfgoAAACAY2JvcqVjYWxnZnNoYTI1NmNwYWRNAAAAAAAAAAAAAAAAAGRoYXNoWCD6FNHheb9VPf3Clo1lDPsvZIF9KZRkOmPC+Bu/B0ZR72RuYW1lbmp1bWJmIG1hbmlmZXN0amV4Y2x1c2lvbnOBomVzdGFydBigZmxlbmd0aBkeBAAAAj5qdW1iAAAAJ2p1bWRjMmNsABEAEIAAAKoAOJtxA2MycGEuY2xhaW0udjIAAAACD2Nib3KlY2FsZ2ZzaGEyNTZpc2lnbmF0dXJleE1zZWxmI2p1bWJmPS9jMnBhL3VybjpjMnBhOjYzMmU1YWU4LTc4YTEtNGE5OS1iYjhlLTI3YzI2NjFmYTgyYi9jMnBhLnNpZ25hdHVyZWppbnN0YW5jZUlEeCx4bXA6aWlkOmViMDMwOGUwLWYxZTYtNGFmNi04Yzk0LTA3ZDRhYTE0YWFlMnJjcmVhdGVkX2Fzc2VydGlvbnODomN1cmx4LXNlbGYjanVtYmY9YzJwYS5hc3NlcnRpb25zL2MycGEuaW5ncmVkaWVudC52M2RoYXNoWCDa/SRs6YQMKwWHe8dgBjXJ9nFM5PDiLVPeHwRG5YxuU6JjdXJseCpzZWxmI2p1bWJmPWMycGEuYXNzZXJ0aW9ucy9jMnBhLmFjdGlvbnMudjJkaGFzaFggujf9srvugjPNpcGfDlVuMt+ful+BKl/u/iglSxtXTEOiY3VybHgpc2VsZiNqdW1iZj1jMnBhLmFzc2VydGlvbnMvYzJwYS5oYXNoLmRhdGFkaGFzaFgg6s546wMa/RU9Yhj/9rfZjDYEyn27gYQXpnssM34y+hd0Y2xhaW1fZ2VuZXJhdG9yX2luZm+jZG5hbWVvQW50aHJvcGljIEZpbGVzZ3ZlcnNpb25lMS4wLjBrc3BlY1ZlcnNpb25lMi40LjAAABA4anVtYgAAAChqdW1kYzJjcwARABCAAACqADibcQNjMnBhLnNpZ25hdHVyZQAAABAIY2JvctKEWQISogEmGCFZAgowggIGMIIBjaADAgECAhRA5aAK7sI50L64g/oGQgU9Z1UTADAKBggqhkjOPQQDAzBJMRcwFQYDVQQKEw5BbnRocm9waWMsIFBCQzEuMCwGA1UEAxMlQW50aHJvcGljIENvbnRlbnQgQ3JlZGVudGlhbHMgUm9vdCBDQTAeFw0yNjA4MDcxODQzNTZaFw0yODA4MDYxOTQzNTZaMEQxFzAVBgNVBAoTDkFudGhyb3BpYywgUEJDMSkwJwYDVQQDEyBBbnRocm9waWMgQ2xhdWRlIENvbnRlbnQgU2lnbmluZzBZMBMGByqGSM49AgEGCCqGSM49AwEHA0IABJh6CmvLUBgFFNU0vUKlOVtE6djd17L5SuwX0LemFisBM3dkd/3cyjxFA3Qo5S46fX0/ihY0VZ7mfb9KF703t5OjWDBWMA4GA1UdDwEB/wQEAwIHgDAVBgNVHSUEDjAMBgorBgEEAYPoXgIBMAwGA1UdEwEB/wQCMAAwHwYDVR0jBBgwFoAUzlHiBIFOZFsj+OPEz5o+nMHXXMIwCgYIKoZIzj0EAwMDZwAwZAIwMXMdFJ4BetLLVY7ORuE9noqbbAZOZn/aArXyTwFAZfKrPzxF2vPoJNf1+UCdg1XGAjBwX1zd9WGqYkqmL5SFqw1QySjr1zJfpJM9+1rdDwSPLMOPOjKuiXjoU/pUUeG9RwmhY3BhZFkNngAAAAAAAAAAAAAAAAAAAAAAAAAAAAAAAAAAAAAAAAAAAAAAAAAAAAAAAAAAAAAAAAAAAAAAAAAAAAAAAAAAAAAAAAAAAAAAAAAAAAAAAAAAAAAAAAAAAAAAAAAAAAAAAAAAAAAAAAAAAAAAAAAAAAAAAAAAAAAAAAAAAAAAAAAAAAAAAAAAAAAAAAAAAAAAAAAAAAAAAAAAAAAAAAAAAAAAAAAAAAAAAAAAAAAAAAAAAAAAAAAAAAAAAAAAAAAAAAAAAAAAAAAAAAAAAAAAAAAAAAAAAAAAAAAAAAAAAAAAAAAAAAAAAAAAAAAAAAAAAAAAAAAAAAAAAAAAAAAAAAAAAAAAAAAAAAAAAAAAAAAAAAAAAAAAAAAAAAAAAAAAAAAAAAAAAAAAAAAAAAAAAAAAAAAAAAAAAAAAAAAAAAAAAAAAAAAAAAAAAAAAAAAAAAAAAAAAAAAAAAAAAAAAAAAAAAAAAAAAAAAAAAAAAAAAAAAAAAAAAAAAAAAAAAAAAAAAAAAAAAAAAAAAAAAAAAAAAAAAAAAAAAAAAAAAAAAAAAAAAAAAAAAAAAAAAAAAAAAAAAAAAAAAAAAAAAAAAAAAAAAAAAAAAAAAAAAAAAAAAAAAAAAAAAAAAAAAAAAAAAAAAAAAAAAAAAAAAAAAAAAAAAAAAAAAAAAAAAAAAAAAAAAAAAAAAAAAAAAAAAAAAAAAAAAAAAAAAAAAAAAAAAAAAAAAAAAAAAAAAAAAAAAAAAAAAAAAAAAAAAAAAAAAAAAAAAAAAAAAAAAAAAAAAAAAAAAAAAAAAAAAAAAAAAAAAAAAAAAAAAAAAAAAAAAAAAAAAAAAAAAAAAAAAAAAAAAAAAAAAAAAAAAAAAAAAAAAAAAAAAAAAAAAAAAAAAAAAAAAAAAAAAAAAAAAAAAAAAAAAAAAAAAAAAAAAAAAAAAAAAAAAAAAAAAAAAAAAAAAAAAAAAAAAAAAAAAAAAAAAAAAAAAAAAAAAAAAAAAAAAAAAAAAAAAAAAAAAAAAAAAAAAAAAAAAAAAAAAAAAAAAAAAAAAAAAAAAAAAAAAAAAAAAAAAAAAAAAAAAAAAAAAAAAAAAAAAAAAAAAAAAAAAAAAAAAAAAAAAAAAAAAAAAAAAAAAAAAAAAAAAAAAAAAAAAAAAAAAAAAAAAAAAAAAAAAAAAAAAAAAAAAAAAAAAAAAAAAAAAAAAAAAAAAAAAAAAAAAAAAAAAAAAAAAAAAAAAAAAAAAAAAAAAAAAAAAAAAAAAAAAAAAAAAAAAAAAAAAAAAAAAAAAAAAAAAAAAAAAAAAAAAAAAAAAAAAAAAAAAAAAAAAAAAAAAAAAAAAAAAAAAAAAAAAAAAAAAAAAAAAAAAAAAAAAAAAAAAAAAAAAAAAAAAAAAAAAAAAAAAAAAAAAAAAAAAAAAAAAAAAAAAAAAAAAAAAAAAAAAAAAAAAAAAAAAAAAAAAAAAAAAAAAAAAAAAAAAAAAAAAAAAAAAAAAAAAAAAAAAAAAAAAAAAAAAAAAAAAAAAAAAAAAAAAAAAAAAAAAAAAAAAAAAAAAAAAAAAAAAAAAAAAAAAAAAAAAAAAAAAAAAAAAAAAAAAAAAAAAAAAAAAAAAAAAAAAAAAAAAAAAAAAAAAAAAAAAAAAAAAAAAAAAAAAAAAAAAAAAAAAAAAAAAAAAAAAAAAAAAAAAAAAAAAAAAAAAAAAAAAAAAAAAAAAAAAAAAAAAAAAAAAAAAAAAAAAAAAAAAAAAAAAAAAAAAAAAAAAAAAAAAAAAAAAAAAAAAAAAAAAAAAAAAAAAAAAAAAAAAAAAAAAAAAAAAAAAAAAAAAAAAAAAAAAAAAAAAAAAAAAAAAAAAAAAAAAAAAAAAAAAAAAAAAAAAAAAAAAAAAAAAAAAAAAAAAAAAAAAAAAAAAAAAAAAAAAAAAAAAAAAAAAAAAAAAAAAAAAAAAAAAAAAAAAAAAAAAAAAAAAAAAAAAAAAAAAAAAAAAAAAAAAAAAAAAAAAAAAAAAAAAAAAAAAAAAAAAAAAAAAAAAAAAAAAAAAAAAAAAAAAAAAAAAAAAAAAAAAAAAAAAAAAAAAAAAAAAAAAAAAAAAAAAAAAAAAAAAAAAAAAAAAAAAAAAAAAAAAAAAAAAAAAAAAAAAAAAAAAAAAAAAAAAAAAAAAAAAAAAAAAAAAAAAAAAAAAAAAAAAAAAAAAAAAAAAAAAAAAAAAAAAAAAAAAAAAAAAAAAAAAAAAAAAAAAAAAAAAAAAAAAAAAAAAAAAAAAAAAAAAAAAAAAAAAAAAAAAAAAAAAAAAAAAAAAAAAAAAAAAAAAAAAAAAAAAAAAAAAAAAAAAAAAAAAAAAAAAAAAAAAAAAAAAAAAAAAAAAAAAAAAAAAAAAAAAAAAAAAAAAAAAAAAAAAAAAAAAAAAAAAAAAAAAAAAAAAAAAAAAAAAAAAAAAAAAAAAAAAAAAAAAAAAAAAAAAAAAAAAAAAAAAAAAAAAAAAAAAAAAAAAAAAAAAAAAAAAAAAAAAAAAAAAAAAAAAAAAAAAAAAAAAAAAAAAAAAAAAAAAAAAAAAAAAAAAAAAAAAAAAAAAAAAAAAAAAAAAAAAAAAAAAAAAAAAAAAAAAAAAAAAAAAAAAAAAAAAAAAAAAAAAAAAAAAAAAAAAAAAAAAAAAAAAAAAAAAAAAAAAAAAAAAAAAAAAAAAAAAAAAAAAAAAAAAAAAAAAAAAAAAAAAAAAAAAAAAAAAAAAAAAAAAAAAAAAAAAAAAAAAAAAAAAAAAAAAAAAAAAAAAAAAAAAAAAAAAAAAAAAAAAAAAAAAAAAAAAAAAAAAAAAAAAAAAAAAAAAAAAAAAAAAAAAAAAAAAAAAAAAAAAAAAAAAAAAAAAAAAAAAAAAAAAAAAAAAAAAAAAAAAAAAAAAAAAAAAAAAAAAAAAAAAAAAAAAAAAAAAAAAAAAAAAAAAAAAAAAAAAAAAAAAAAAAAAAAAAAAAAAAAAAAAAAAAAAAAAAAAAAAAAAAAAAAAAAAAAAAAAAAAAAAAAAAAAAAAAAAAAAAAAAAAAAAAAAAAAAAAAAAAAAAAAAAAAAAAAAAAAAAAAAAAAAAAAAAAAAAAAAAAAAAAAAAAAAAAAAAAAAAAAAAAAAAAAAAAAAAAAAAAAAAAAAAAAAAAAAAAAAAAAAAAAAAAAAAAAAAAAAAAAAAAAAAAAAAAAAAAAAAAAAAAAAAAAAAAAAAAAAAAAAAAAAAAAAAAAAAAAAAAAAAAAAAAAAAAAAAAAAAAAAAAAAAAAAAAAAAAAAAAAAAAAAAAAAAAAAAAAAAAAAAAAAAAAAAAAAAAAAAAAAAAAAAAAAAAAAAAAAAAAAAAAAAAAAAAAAAAAAAAAAAAAAAAAAAAAAAAAAAAAAAAAAAAAAAAAAAAAAAAAAAAAAAAAAAAAAAAAAAAAAAAAAAAAAAAAAAAAAAAAAAAAAAAAAAAAAAAAAAAAAAAAAAAAAAAAAAAAAAAAAAAAAAAAAAAAAAAAAAAAAAAAAAAAAAAAAAAAAAAAAAAAAAAAAAAAAAAAAAAAAAAAAAAAAAAAAAAAAAAAAAAAAAAAAAAAAAAAAAAAAAAAAAAAAAAAAAAAAAAAAAAAAAAAAAAAAAAAAAAAAAAAAAAAAAAAAAAAAAAAAAAAAAAAAAAAAAAAAAAAAAAAAAAAAAAAAAAAAAAAAAAAAAAAAAAAAAAAAAAAAAAAAAAAAAAAAAAAAAAAAAAAAAAAAAAAAAAAAAAAAAAAAAAAAAAAAAAAAAAAAAAAAAAAAAAAAAAAAAAAAAAAAAAAAAAAAAAAAAAAAAAAAAAAAAAAAAAAAAAAAAAAAAAAAAAAAAAAAAAAAAAAAAAAAAAAAAAAAAAAAAAAAAAAAAAAAAAAAAAAAAAAAAAAAAAAAAAAAAAAAAAAAAAAAAAAAAAAAAAAAAAAAAAAAAAAAAAAAAAAAAAAAAAAAAAAAAAAAAAAAAAAAAAAAAAAAAAAAAAAAAAAAAAAAAAAAAAAAAAAAAAAAAAAAAAAAAAAAAAAAAAAAAAAAAAAAAAAAAAAAAAAAAAAAAAAAAAAAAAAAAAAAAAAAAAAAAAAAAAAAAAAAAAAAAAAAAAAAAAAAAAAAAAAAAAAAAAAAAAAAAAAAAAAAAAAAAAAAAAAAAAAAAAAAAAAAAAAAAAAAAAAAAAAAAAAAAAAAAAAAAAAAAAAAAAAAAAAAAAAAAAAAAAAAAAAAAAAAAAAAAAAAAAAAAAAAAAAAAAAAAAAAAAAAAAAAAAAAAAAAAAAAAAAAAAAAAAAAAAAAAAAAAAAAAAAAAAAAAAAAAAAAAAAAAAAAAAAAAAAAAAAAAAAAAAAAAAAAAAAAAAAAAAAAAAAAAAAAAAAAAAAAAAAAAAAAAAAAAAAAAAAAAAAAAAAAAAAAAAAAAAAAAAAAAAAAAAAAAAAAAAAAAAAAAAAAAAAAAAAAAAAAAAAAAAAAAAAAAAAAAAAAAAAAAAAAAAAAAAAAAAAAAAAAAAAAAAAAAAAAAAAAAAAAAAAAAAAAAAAAAAAAAAAAAAAAAAAAAAAAAAAAAAAAAAAAAAAAAAAAAAAAAAAAAAAAAAAAAAAAAAAAAAAAAAAAAAAAAAAAAAAAAAAAAAAAAAAAAAAAAAAAAAAAAAAAAAAAAAAAAAAAAAAAAAAAAAAAAAAAAAAAPZYQIfyBw9jTCYNiNd30z9BwELTNgFrrliLP0lE2hSdRP2YplbxR5+qdnxq7iZmqhYKuJlB/QxjklvT1ANLbBVFWWM=</c2pa:manifest></metadata>
<path d="M47.3371 14.1874C47.3491 13.0634 47.079 11.9547 46.552 10.9647C46.0298 10.0072 45.2563 9.21381 44.3166 8.67205C43.2723 8.08312 42.0913 7.78696 40.8958 7.81423C39.6781 7.79387 38.4756 8.09015 37.4037 8.67463C36.396 9.24437 35.5762 10.1007 35.0459 11.1373C34.4545 12.3158 34.1603 13.6237 34.1895 14.9448C34.1608 16.2612 34.4587 17.564 35.0561 18.7341C35.6005 19.7679 36.4256 20.6232 37.4343 21.1994C38.4929 21.7909 39.6863 22.092 40.8958 22.0727C42.5501 22.0727 43.9342 21.6451 45.015 20.8053C45.7272 20.2591 46.3047 19.5537 46.7024 18.7444C46.7346 18.6778 46.7491 18.6038 46.7446 18.5298C46.7402 18.4558 46.7168 18.3842 46.6769 18.322C46.635 18.2527 46.5762 18.1955 46.5061 18.1558C46.4361 18.1161 46.3571 18.0953 46.2767 18.0953H46.241C46.1489 18.0961 46.0592 18.1247 45.9833 18.1775C45.9074 18.2303 45.8489 18.3048 45.8154 18.3915C45.4829 19.2065 44.9255 19.9076 44.2095 20.4112C43.2341 21.0806 42.0743 21.4215 40.8958 21.3849C39.9353 21.392 38.987 21.1668 38.1302 20.728C37.2733 20.283 36.5564 19.6049 36.0604 18.7702C35.5179 17.8368 35.2196 16.7792 35.1938 15.697L35.1708 15.223H47.3142C47.3295 14.9293 47.3371 14.5841 47.3371 14.1874ZM46.3175 14.5841H35.153L35.1836 14.105C35.2983 12.3558 35.8947 10.9751 36.9679 9.99873C38.0156 9.02498 39.3936 8.49557 40.8168 8.52007C41.7738 8.51187 42.7193 8.73069 43.5774 9.15893C44.4286 9.58628 45.1375 10.2561 45.6165 11.0858C46.1319 12.0124 46.38 13.0663 46.3328 14.1281L46.3175 14.5841Z" fill="white"></path>
<path d="M63.0237 21.8476H63.0492C63.1715 21.8476 63.2889 21.7985 63.3754 21.711C63.4619 21.6236 63.5105 21.505 63.5105 21.3813V13.6737C63.5105 11.7417 63.0007 10.2553 61.9812 9.26096C60.9616 8.26661 59.6692 7.74882 58.0328 7.74882C57.0756 7.73299 56.1298 7.96065 55.2824 8.41087C54.4404 8.84185 53.725 9.48849 53.2075 10.2862C52.9394 10.7104 52.7414 11.1759 52.6213 11.6644V8.48815C52.6213 8.36448 52.5727 8.24589 52.4862 8.15845C52.3996 8.071 52.2823 8.02188 52.1599 8.02188H52.1064C51.984 8.02188 51.8667 8.071 51.7802 8.15845C51.6936 8.24589 51.645 8.36448 51.645 8.48815V21.3684C51.645 21.4921 51.6936 21.6107 51.7802 21.6981C51.8667 21.7856 51.984 21.8347 52.1064 21.8347H52.1599C52.2823 21.8347 52.3996 21.7856 52.4862 21.6981C52.5727 21.6107 52.6213 21.4921 52.6213 21.3684V14.2611C52.6213 12.4063 53.0852 10.9689 53.9977 9.98741C54.9103 9.00594 56.1567 8.49587 57.6861 8.49587C59.2155 8.49587 60.3778 8.96987 61.2547 9.90498C62.1315 10.8401 62.5649 12.1719 62.5649 13.8824V21.3813C62.5649 21.5045 62.6131 21.6227 62.6991 21.7101C62.7851 21.7975 62.9018 21.8469 63.0237 21.8476Z" fill="white"></path>
<path d="M69.0542 2.78711H69.0007C68.7459 2.78711 68.5393 2.99586 68.5393 3.25338V21.3785C68.5393 21.636 68.7459 21.8448 69.0007 21.8448H69.0542C69.309 21.8448 69.5156 21.636 69.5156 21.3785V3.25338C69.5156 2.99586 69.309 2.78711 69.0542 2.78711Z" fill="white"></path>
<path d="M75.1643 8.02148H75.1108C74.856 8.02148 74.6494 8.23024 74.6494 8.48775V21.3809C74.6494 21.6384 74.856 21.8472 75.1108 21.8472H75.1643C75.4191 21.8472 75.6257 21.6384 75.6257 21.3809V8.48775C75.6257 8.23024 75.4191 8.02148 75.1643 8.02148Z" fill="white"></path>
<path d="M74.5423 2.80989C74.4594 2.88478 74.3936 2.97705 74.3496 3.08027C74.3056 3.18349 74.2844 3.29518 74.2874 3.40754C74.2842 3.52219 74.3052 3.63623 74.3492 3.74198C74.3932 3.84773 74.459 3.94275 74.5423 4.02064C74.6175 4.10313 74.709 4.1687 74.8109 4.21308C74.9128 4.25747 75.0228 4.27967 75.1337 4.27825C75.2451 4.27825 75.3553 4.25593 75.458 4.21256C75.5608 4.1692 75.6539 4.10566 75.7322 4.02562C75.8104 3.94559 75.8722 3.85066 75.9139 3.74632C75.9555 3.64199 75.9763 3.53034 75.9749 3.41784C75.9796 3.30647 75.9604 3.19539 75.9186 3.09223C75.8768 2.98907 75.8134 2.89627 75.7328 2.82019C75.6542 2.74137 75.5605 2.6795 75.4576 2.63832C75.3546 2.59714 75.2444 2.57751 75.1337 2.58062C75.025 2.57661 74.9165 2.59486 74.8149 2.63426C74.7133 2.67365 74.6206 2.73339 74.5423 2.80989Z" fill="white"></path>
<path d="M82.8597 27.8128C84.0118 28.65 85.4928 29.075 87.2566 29.075C88.4096 29.0959 89.5492 28.8231 90.5703 28.2816C91.514 27.7678 92.2917 26.9908 92.8108 26.043C93.3635 25.0144 93.6444 23.8593 93.6265 22.689V8.48717C93.6265 8.36351 93.5779 8.24491 93.4914 8.15747C93.4049 8.07003 93.2875 8.02091 93.1652 8.02091H93.1116C92.9893 8.02091 92.8719 8.07003 92.7854 8.15747C92.6989 8.24491 92.6503 8.36351 92.6503 8.48717V12.6089C92.6503 12.6089 92.6503 12.0473 92.0538 10.9756C91.4831 10.0501 90.703 9.27484 89.7776 8.71387C88.7725 8.09735 87.6138 7.78449 86.4384 7.81225C85.2601 7.79416 84.0985 8.09477 83.0738 8.68295C82.0866 9.26433 81.2844 10.1188 80.7619 11.1457C80.1796 12.3132 79.8899 13.6073 79.9181 14.9144C79.8907 16.2264 80.1803 17.5254 80.7619 18.6987C81.2844 19.7337 82.087 20.5976 83.0763 21.1897C84.0977 21.785 85.2595 22.0894 86.4384 22.0707C87.6072 22.0988 88.7587 21.7819 89.7521 21.1588C90.6799 20.5509 91.6434 19.5848 92.0462 18.8404C92.3355 18.349 92.5373 17.8102 92.6426 17.2483V22.689C92.6658 23.7393 92.4264 24.7786 91.9468 25.7107C91.5071 26.5485 90.8311 27.2353 90.0044 27.684C89.1552 28.1278 88.21 28.351 87.2541 28.3331C86.0001 28.3702 84.7642 28.0236 83.7085 27.3388C82.9291 26.8215 82.3105 26.0918 81.9242 25.2341C81.8878 25.1534 81.8294 25.0848 81.7558 25.0364C81.6822 24.9881 81.5965 24.9619 81.5087 24.9611C81.4302 24.9608 81.3529 24.9805 81.2838 25.0183C81.2148 25.0561 81.1563 25.1108 81.1136 25.1775C81.0731 25.2361 81.0478 25.3042 81.0403 25.3753C81.0327 25.4465 81.043 25.5184 81.0703 25.5845C81.451 26.4804 82.0705 27.2519 82.8597 27.8128ZM91.8652 18.2813C91.3785 19.2201 90.6399 20.0012 89.7342 20.5354C88.835 21.0602 87.8132 21.3323 86.7749 21.3237C85.7255 21.3397 84.6908 21.0729 83.7773 20.5509C82.8748 20.0187 82.143 19.2353 81.6693 18.2942C81.1463 17.2472 80.8838 16.0871 80.9046 14.9144C80.8786 13.7404 81.1413 12.5782 81.6693 11.5321C82.1465 10.6041 82.8784 9.83491 83.7773 9.31666C84.6928 8.80328 85.7254 8.54127 86.7723 8.55673C87.8111 8.54708 88.8334 8.82025 89.7317 9.34758C90.6378 9.88004 91.3765 10.6605 91.8626 11.5991C92.3744 12.6397 92.6407 13.7859 92.6407 14.9479C92.6407 16.11 92.3744 17.2562 91.8626 18.2968L91.8652 18.2813Z" fill="white"></path>
<path d="M110.157 21.8448H110.182C110.305 21.8448 110.422 21.7957 110.508 21.7082C110.595 21.6208 110.644 21.5022 110.644 21.3785V13.671C110.682 12.5242 110.441 11.3855 109.94 10.3556C109.521 9.52375 108.86 8.84145 108.046 8.40034C107.189 7.95589 106.236 7.73119 105.273 7.74602C104.292 7.73247 103.322 7.96432 102.451 8.42095C101.604 8.85535 100.878 9.4964 100.338 10.286C99.7543 11.2366 99.7543 11.6281 99.7543 11.6281V3.25338C99.7543 3.12971 99.7057 3.01112 99.6192 2.92368C99.5327 2.83623 99.4153 2.78711 99.2929 2.78711H99.2343C99.112 2.78711 98.9946 2.83623 98.9081 2.92368C98.8216 3.01112 98.7729 3.12971 98.7729 3.25338V21.3785C98.7729 21.5022 98.8216 21.6208 98.9081 21.7082C98.9946 21.7957 99.112 21.8448 99.2343 21.8448H99.2878C99.4102 21.8448 99.5276 21.7957 99.6141 21.7082C99.7006 21.6208 99.7492 21.5022 99.7492 21.3785V14.2583C99.7492 12.4035 100.213 10.9661 101.126 9.98462C102.038 9.00314 103.285 8.49308 104.812 8.49308C106.338 8.49308 107.503 8.96707 108.38 9.90218C109.257 10.8373 109.69 12.1691 109.69 13.8796V21.3785C109.69 21.4402 109.702 21.5013 109.726 21.5582C109.749 21.6151 109.784 21.6667 109.827 21.7101C109.871 21.7534 109.922 21.7877 109.979 21.8108C110.035 21.8339 110.096 21.8455 110.157 21.8448Z" fill="white"></path>
<path d="M117.029 21.0416C117.582 21.5748 118.467 21.8453 119.657 21.8453H120.873C120.963 21.8446 121.05 21.8081 121.114 21.7435C121.177 21.6789 121.214 21.5915 121.214 21.5001V21.4744C121.214 21.383 121.177 21.2956 121.114 21.231C121.05 21.1664 120.963 21.1298 120.873 21.1292H119.95C118.964 21.1292 118.275 20.9179 117.847 20.4852C117.419 20.0524 117.21 19.3388 117.21 18.3058V8.71H120.873C120.963 8.71 121.05 8.67363 121.114 8.60889C121.178 8.54416 121.214 8.45636 121.214 8.36481C121.214 8.27326 121.178 8.18546 121.114 8.12072C121.05 8.05599 120.963 8.01961 120.873 8.01961H117.21V4.67074C117.209 4.57964 117.173 4.4925 117.109 4.42832C117.045 4.36414 116.958 4.32812 116.868 4.32813H116.547C116.457 4.32812 116.371 4.36414 116.307 4.42832C116.243 4.4925 116.206 4.57964 116.206 4.67074V8.01961H114.528C114.438 8.01961 114.351 8.05599 114.287 8.12072C114.223 8.18546 114.187 8.27326 114.187 8.36481C114.187 8.45636 114.223 8.54416 114.287 8.60889C114.351 8.67363 114.438 8.71 114.528 8.71H116.216V18.3084C116.206 19.5964 116.483 20.5109 117.029 21.0416Z" fill="white"></path>
<path d="M147.054 21.8457H147.347C147.437 21.8457 147.524 21.8094 147.588 21.7446C147.652 21.6799 147.688 21.5921 147.688 21.5005V8.36265C147.688 8.2711 147.652 8.18329 147.588 8.11856C147.524 8.05382 147.437 8.01746 147.347 8.01746H147.054C146.963 8.01746 146.876 8.05382 146.812 8.11856C146.748 8.18329 146.712 8.2711 146.712 8.36265V12.6595C146.605 12.073 146.403 11.5082 146.116 10.9876C145.541 10.063 144.768 9.28178 143.852 8.70269C142.845 8.0821 141.682 7.76899 140.503 7.80107C139.324 7.78339 138.161 8.08396 137.135 8.67177C136.149 9.25383 135.347 10.1081 134.824 11.1345C134.269 12.3145 133.981 13.6046 133.981 14.911C133.981 16.2174 134.269 17.5074 134.824 18.6875C135.345 19.7224 136.147 20.5863 137.135 21.1785C138.149 21.7712 139.302 22.0756 140.472 22.0595C141.653 22.0907 142.817 21.7719 143.821 21.1425C144.743 20.5468 145.526 19.7557 146.116 18.824C146.409 18.3397 146.709 16.9744 146.709 16.9744V21.4825C146.707 21.5296 146.714 21.5766 146.73 21.6208C146.747 21.6649 146.772 21.7053 146.804 21.7393C146.836 21.7733 146.875 21.8003 146.918 21.8186C146.961 21.8369 147.007 21.8461 147.054 21.8457ZM145.94 18.2753C145.452 19.2132 144.714 19.9941 143.809 20.5294C142.909 21.0541 141.888 21.3263 140.849 21.3176C139.799 21.3334 138.764 21.0667 137.849 20.5448C136.947 20.0126 136.217 19.2291 135.744 18.2882C135.219 17.2417 134.957 16.0812 134.979 14.9084C134.953 13.7344 135.216 12.5722 135.744 11.526C136.222 10.5979 136.955 9.82873 137.854 9.31064C138.77 8.79725 139.802 8.53524 140.849 8.5507C141.888 8.54168 142.91 8.81482 143.809 9.34155C144.713 9.8761 145.451 10.6561 145.94 11.593C146.45 12.6341 146.715 13.7802 146.715 14.9419C146.715 16.1036 146.45 17.2497 145.94 18.2908V18.2753Z" fill="white"></path>
<path d="M128.068 8.99707C128.848 8.52822 129.598 8.48185 130.416 8.48185H131.352C131.396 8.48185 131.441 8.47292 131.482 8.45558C131.524 8.43823 131.561 8.4128 131.593 8.38075C131.625 8.34869 131.65 8.31064 131.667 8.26876C131.684 8.22688 131.693 8.18199 131.693 8.13666V8.10832C131.69 8.01857 131.653 7.93339 131.59 7.87087C131.526 7.80835 131.44 7.7734 131.352 7.77344H130.136C128.945 7.77344 128.061 8.09544 127.508 8.62869C127.096 9.07887 126.772 9.60317 126.552 10.1743L126.162 11.3104V8.36593C126.162 8.27438 126.126 8.18658 126.062 8.12184C125.998 8.05711 125.911 8.02074 125.82 8.02074H125.514C125.424 8.02074 125.337 8.05711 125.273 8.12184C125.209 8.18658 125.173 8.27438 125.173 8.36593V21.5038C125.173 21.5954 125.209 21.6832 125.273 21.7479C125.337 21.8126 125.424 21.849 125.514 21.849H125.808C125.898 21.849 125.985 21.8126 126.049 21.7479C126.113 21.6832 126.149 21.5954 126.149 21.5038V14.0719C126.149 13.9508 126.149 13.8349 126.149 13.719V13.5232C126.152 11.2228 127.296 9.46076 128.068 8.99707Z" fill="white"></path>
<path d="M23.1501 5.13067C23.078 5.04136 22.9886 4.96781 22.8875 4.91447C22.7864 4.86114 22.6757 4.82913 22.5619 4.82041C22.4482 4.81169 22.3339 4.82643 22.226 4.86373C22.1181 4.90104 22.0188 4.96013 21.9342 5.03742C21.8496 5.11471 21.7815 5.20857 21.7339 5.31332C21.6863 5.41806 21.6603 5.53149 21.6574 5.64671C21.6545 5.76193 21.6749 5.87654 21.7172 5.98356C21.7595 6.09059 21.8229 6.1878 21.9036 6.26929C23.8045 8.39281 24.8565 11.1545 24.8553 14.0181C24.8553 14.1898 24.8502 14.3676 24.84 14.5513C24.2079 19.9765 20.8432 18.284 19.9256 14.0181C18.8066 8.82731 18.9417 2.33822 18.3529 2.33822C17.5754 2.33822 17.9221 8.173 16.9764 14.0103C16.0996 19.4201 13.5047 28.4517 5.32502 22.161C3.72944 20.5444 2.64384 18.4862 2.20541 16.2463C1.76697 14.0064 1.99538 11.6854 2.86177 9.57664C3.72815 7.4679 5.19363 5.66603 7.073 4.39875C8.95237 3.13147 11.1613 2.45566 13.4206 2.45672C13.5348 2.46308 13.649 2.44584 13.7564 2.40606C13.8638 2.36628 13.962 2.30478 14.0451 2.22534C14.1281 2.1459 14.1943 2.05017 14.2395 1.94401C14.2847 1.83785 14.308 1.72349 14.308 1.60791C14.308 1.49234 14.2847 1.37797 14.2395 1.27181C14.1943 1.16565 14.1281 1.06993 14.0451 0.990482C13.962 0.911038 13.8638 0.849546 13.7564 0.809762C13.649 0.769979 13.5348 0.752741 13.4206 0.759101C10.4162 0.760233 7.50334 1.80426 5.16957 3.71643C2.83581 5.62861 1.22276 8.29289 0.600404 11.2633C-0.0219495 14.2338 0.384164 17.3302 1.75077 20.0342C3.11738 22.7382 5.36154 24.8857 8.10765 26.1174C10.8538 27.3491 13.9351 27.5901 16.8361 26.8002C19.737 26.0103 22.2815 24.2373 24.0435 21.778C25.8056 19.3187 26.6783 16.3224 26.5157 13.2905C26.353 10.2587 25.1649 7.37528 23.1501 5.12294V5.13067Z" fill="white"></path>
<path d="M8.61289 21.4883C8.51358 21.4886 8.41659 21.458 8.33505 21.4008C6.77652 20.3075 5.60466 18.7392 4.9906 16.9251C4.37653 15.111 4.35242 13.146 4.92179 11.317C5.49115 9.48805 6.62417 7.89095 8.1554 6.75893C9.68662 5.62691 11.5358 5.01926 13.433 5.02473C13.5001 5.01982 13.5674 5.02894 13.6309 5.05151C13.6943 5.07408 13.7524 5.10962 13.8017 5.15591C13.8509 5.2022 13.8902 5.25825 13.917 5.32055C13.9439 5.38286 13.9577 5.45008 13.9577 5.51804C13.9577 5.586 13.9439 5.65323 13.917 5.71553C13.8902 5.77784 13.8509 5.83388 13.8017 5.88017C13.7524 5.92646 13.6943 5.962 13.6309 5.98457C13.5674 6.00714 13.5001 6.01626 13.433 6.01136C11.7463 6.01199 10.1037 6.55651 8.74436 7.56569C7.38497 8.57487 6.37966 9.99608 5.87467 11.6225C5.36968 13.249 5.39136 14.9959 5.93656 16.609C6.48175 18.2222 7.52202 19.6175 8.90602 20.5919C8.99153 20.6517 9.05581 20.7377 9.08945 20.8372C9.1231 20.9366 9.12434 21.0444 9.09299 21.1446C9.06164 21.2448 8.99935 21.3323 8.91525 21.3942C8.83114 21.456 8.72965 21.489 8.62563 21.4883H8.61289Z" fill="white"></path>
<path d="M10.8481 18.0358C10.7432 18.0366 10.641 18.0021 10.5575 17.9379C9.7404 17.3291 9.13439 16.475 8.82588 15.4976C8.51736 14.5201 8.52209 13.4692 8.83938 12.4946C9.15668 11.52 9.77035 10.6716 10.5929 10.0703C11.4154 9.46893 12.4048 9.1454 13.42 9.14582C13.4871 9.14092 13.5544 9.15004 13.6178 9.17261C13.6813 9.19518 13.7394 9.23072 13.7886 9.27701C13.8379 9.3233 13.8771 9.37934 13.904 9.44164C13.9308 9.50395 13.9447 9.57118 13.9447 9.63914C13.9447 9.70709 13.9308 9.77433 13.904 9.83663C13.8771 9.89894 13.8379 9.95498 13.7886 10.0013C13.7394 10.0476 13.6813 10.0831 13.6178 10.1057C13.5544 10.1282 13.4871 10.1374 13.42 10.1325C12.6093 10.1295 11.8184 10.3857 11.1604 10.8644C10.5025 11.343 10.0111 12.0197 9.75659 12.7976C9.50208 13.5755 9.49747 14.4149 9.74341 15.1956C9.98935 15.9763 10.4732 16.6585 11.1259 17.1445C11.2083 17.2065 11.2693 17.2931 11.3003 17.3921C11.3312 17.4911 11.3306 17.5974 11.2985 17.696C11.2663 17.7946 11.2043 17.8805 11.1212 17.9414C11.038 18.0024 10.938 18.0355 10.8353 18.0358H10.8481Z" fill="white"></path>
</svg>