<svg width="692" height="175" viewBox="0 0 692 175" fill="none" xmlns="http://www.w3.org/2000/svg" xmlns:c2pa="http://c2pa.org/manifest"><metadata><c2pa:manifest>AAAWgmp1bWIAAAAeanVtZGMycGEAEQAQgAAAqgA4m3EDYzJwYQAAABZcanVtYgAAAEdqdW1kYzJtYQARABCAAACqADibcQN1cm46YzJwYTpmZjQyM2QxNC1hYmZlLTQ0NTQtYjg4Zi05MTYxMDI0MWFjODgAAAADl2p1bWIAAAApanVtZGMyYXMAEQAQgAAAqgA4m3EDYzJwYS5hc3NlcnRpb25zAAAAALxqdW1iAAAARGp1bWRjYm9yABEAEIAAAKoAOJtxE2MycGEuaW5ncmVkaWVudC52MwAAAAAYYzJzaHX353X5qLeutMFgDweiD8YAAABwY2JvcqNpZGM6Zm9ybWF0bWltYWdlL3N2Zyt4bWxqaW5zdGFuY2VJRHgseG1wOmlpZDplYjRjNjIwZS1lYTJkLTQwOTctYWEyMS0zZTE1MTE0Y2M1MWNscmVsYXRpb25zaGlwaHBhcmVudE9mAAAB4mp1bWIAAABBanVtZGNib3IAEQAQgAAAqgA4m3ETYzJwYS5hY3Rpb25zLnYyAAAAABhjMnNoBOA6zObURDnrdYXlEd9WJQAAAZljYm9yomdhY3Rpb25zgqJmYWN0aW9ua2MycGEub3BlbmVkanBhcmFtZXRlcnOha2luZ3JlZGllbnRzgaJjdXJseC1zZWxmI2p1bWJmPWMycGEuYXNzZXJ0aW9ucy9jMnBhLmluZ3JlZGllbnQudjNkaGFzaFggqEuKTClwWDmqqh29i4cnYU2xw5rK44PyxvVz1SslhtmkZmFjdGlvbngdY29tLmFudGhyb3BpYy5jbGF1ZGUucHJvdmlkZWRqcGFyYW1ldGVyc6F4H2NvbS5hbnRocm9waWMub3JpZ2luLWNvbmZpZGVuY2VndW5rbm93bmtkZXNjcmlwdGlvbnhmQ2xhdWRlIHByb3ZpZGVkIHRoaXMgZmlsZSBhdCB0aGUgcmVxdWVzdCBvZiBhIHVzZXIgYW5kIG1heSBoYXZlIGNyZWF0ZWQgb3IgbW9kaWZpZWQgdGhlIGZpbGUgY29udGVudHMubXNvZnR3YXJlQWdlbnShZG5hbWVmQ2xhdWRlcmFsbEFjdGlvbnNJbmNsdWRlZPUAAADIanVtYgAAAEBqdW1kY2JvcgARABCAAACqADibcRNjMnBhLmhhc2guZGF0YQAAAAAYYzJzaCG/ip4FkloF1LystvVyFNEAAACAY2JvcqVjYWxnZnNoYTI1NmNwYWRNAAAAAAAAAAAAAAAAAGRoYXNoWCCHDi2MuXnVCMTkaPuYOEmn9PiLjtGgDioDQ0XC8VqK1WRuYW1lbmp1bWJmIG1hbmlmZXN0amV4Y2x1c2lvbnOBomVzdGFydBiiZmxlbmd0aBkeBAAAAj5qdW1iAAAAJ2p1bWRjMmNsABEAEIAAAKoAOJtxA2MycGEuY2xhaW0udjIAAAACD2Nib3KlY2FsZ2ZzaGEyNTZpc2lnbmF0dXJleE1zZWxmI2p1bWJmPS9jMnBhL3VybjpjMnBhOmZmNDIzZDE0LWFiZmUtNDQ1NC1iODhmLTkxNjEwMjQxYWM4OC9jMnBhLnNpZ25hdHVyZWppbnN0YW5jZUlEeCx4bXA6aWlkOmRmY2FkZTRiLWFiYTctNGIwOS1iODkwLTU3ZTQ5NGYxNjY2ZHJjcmVhdGVkX2Fzc2VydGlvbnODomN1cmx4LXNlbGYjanVtYmY9YzJwYS5hc3NlcnRpb25zL2MycGEuaW5ncmVkaWVudC52M2RoYXNoWCCoS4pMKXBYOaqqHb2LhydhTbHDmsrjg/LG9XPVKyWG2aJjdXJseCpzZWxmI2p1bWJmPWMycGEuYXNzZXJ0aW9ucy9jMnBhLmFjdGlvbnMudjJkaGFzaFggQehBBA0q7sF56NV9tLoDWFurqf5a8OMqUGkqE/8hlbeiY3VybHgpc2VsZiNqdW1iZj1jMnBhLmFzc2VydGlvbnMvYzJwYS5oYXNoLmRhdGFkaGFzaFggAIRkUPatetmLiklnASYCvbcyTNlFUwLnDH1Um59APZp0Y2xhaW1fZ2VuZXJhdG9yX2luZm+jZG5hbWVvQW50aHJvcGljIEZpbGVzZ3ZlcnNpb25lMS4wLjBrc3BlY1ZlcnNpb25lMi40LjAAABA4anVtYgAAAChqdW1kYzJjcwARABCAAACqADibcQNjMnBhLnNpZ25hdHVyZQAAABAIY2JvctKEWQISogEmGCFZAgowggIGMIIBjaADAgECAhRA5aAK7sI50L64g/oGQgU9Z1UTADAKBggqhkjOPQQDAzBJMRcwFQYDVQQKEw5BbnRocm9waWMsIFBCQzEuMCwGA1UEAxMlQW50aHJvcGljIENvbnRlbnQgQ3JlZGVudGlhbHMgUm9vdCBDQTAeFw0yNjA4MDcxODQzNTZaFw0yODA4MDYxOTQzNTZaMEQxFzAVBgNVBAoTDkFudGhyb3BpYywgUEJDMSkwJwYDVQQDEyBBbnRocm9waWMgQ2xhdWRlIENvbnRlbnQgU2lnbmluZzBZMBMGByqGSM49AgEGCCqGSM49AwEHA0IABJh6CmvLUBgFFNU0vUKlOVtE6djd17L5SuwX0LemFisBM3dkd/3cyjxFA3Qo5S46fX0/ihY0VZ7mfb9KF703t5OjWDBWMA4GA1UdDwEB/wQEAwIHgDAVBgNVHSUEDjAMBgorBgEEAYPoXgIBMAwGA1UdEwEB/wQCMAAwHwYDVR0jBBgwFoAUzlHiBIFOZFsj+OPEz5o+nMHXXMIwCgYIKoZIzj0EAwMDZwAwZAIwMXMdFJ4BetLLVY7ORuE9noqbbAZOZn/aArXyTwFAZfKrPzxF2vPoJNf1+UCdg1XGAjBwX1zd9WGqYkqmL5SFqw1QySjr1zJfpJM9+1rdDwSPLMOPOjKuiXjoU/pUUeG9RwmhY3BhZFkNngAAAAAAAAAAAAAAAAAAAAAAAAAAAAAAAAAAAAAAAAAAAAAAAAAAAAAAAAAAAAAAAAAAAAAAAAAAAAAAAAAAAAAAAAAAAAAAAAAAAAAAAAAAAAAAAAAAAAAAAAAAAAAAAAAAAAAAAAAAAAAAAAAAAAAAAAAAAAAAAAAAAAAAAAAAAAAAAAAAAAAAAAAAAAAAAAAAAAAAAAAAAAAAAAAAAAAAAAAAAAAAAAAAAAAAAAAAAAAAAAAAAAAAAAAAAAAAAAAAAAAAAAAAAAAAAAAAAAAAAAAAAAAAAAAAAAAAAAAAAAAAAAAAAAAAAAAAAAAAAAAAAAAAAAAAAAAAAAAAAAAAAAAAAAAAAAAAAAAAAAAAAAAAAAAAAAAAAAAAAAAAAAAAAAAAAAAAAAAAAAAAAAAAAAAAAAAAAAAAAAAAAAAAAAAAAAAAAAAAAAAAAAAAAAAAAAAAAAAAAAAAAAAAAAAAAAAAAAAAAAAAAAAAAAAAAAAAAAAAAAAAAAAAAAAAAAAAAAAAAAAAAAAAAAAAAAAAAAAAAAAAAAAAAAAAAAAAAAAAAAAAAAAAAAAAAAAAAAAAAAAAAAAAAAAAAAAAAAAAAAAAAAAAAAAAAAAAAAAAAAAAAAAAAAAAAAAAAAAAAAAAAAAAAAAAAAAAAAAAAAAAAAAAAAAAAAAAAAAAAAAAAAAAAAAAAAAAAAAAAAAAAAAAAAAAAAAAAAAAAAAAAAAAAAAAAAAAAAAAAAAAAAAAAAAAAAAAAAAAAAAAAAAAAAAAAAAAAAAAAAAAAAAAAAAAAAAAAAAAAAAAAAAAAAAAAAAAAAAAAAAAAAAAAAAAAAAAAAAAAAAAAAAAAAAAAAAAAAAAAAAAAAAAAAAAAAAAAAAAAAAAAAAAAAAAAAAAAAAAAAAAAAAAAAAAAAAAAAAAAAAAAAAAAAAAAAAAAAAAAAAAAAAAAAAAAAAAAAAAAAAAAAAAAAAAAAAAAAAAAAAAAAAAAAAAAAAAAAAAAAAAAAAAAAAAAAAAAAAAAAAAAAAAAAAAAAAAAAAAAAAAAAAAAAAAAAAAAAAAAAAAAAAAAAAAAAAAAAAAAAAAAAAAAAAAAAAAAAAAAAAAAAAAAAAAAAAAAAAAAAAAAAAAAAAAAAAAAAAAAAAAAAAAAAAAAAAAAAAAAAAAAAAAAAAAAAAAAAAAAAAAAAAAAAAAAAAAAAAAAAAAAAAAAAAAAAAAAAAAAAAAAAAAAAAAAAAAAAAAAAAAAAAAAAAAAAAAAAAAAAAAAAAAAAAAAAAAAAAAAAAAAAAAAAAAAAAAAAAAAAAAAAAAAAAAAAAAAAAAAAAAAAAAAAAAAAAAAAAAAAAAAAAAAAAAAAAAAAAAAAAAAAAAAAAAAAAAAAAAAAAAAAAAAAAAAAAAAAAAAAAAAAAAAAAAAAAAAAAAAAAAAAAAAAAAAAAAAAAAAAAAAAAAAAAAAAAAAAAAAAAAAAAAAAAAAAAAAAAAAAAAAAAAAAAAAAAAAAAAAAAAAAAAAAAAAAAAAAAAAAAAAAAAAAAAAAAAAAAAAAAAAAAAAAAAAAAAAAAAAAAAAAAAAAAAAAAAAAAAAAAAAAAAAAAAAAAAAAAAAAAAAAAAAAAAAAAAAAAAAAAAAAAAAAAAAAAAAAAAAAAAAAAAAAAAAAAAAAAAAAAAAAAAAAAAAAAAAAAAAAAAAAAAAAAAAAAAAAAAAAAAAAAAAAAAAAAAAAAAAAAAAAAAAAAAAAAAAAAAAAAAAAAAAAAAAAAAAAAAAAAAAAAAAAAAAAAAAAAAAAAAAAAAAAAAAAAAAAAAAAAAAAAAAAAAAAAAAAAAAAAAAAAAAAAAAAAAAAAAAAAAAAAAAAAAAAAAAAAAAAAAAAAAAAAAAAAAAAAAAAAAAAAAAAAAAAAAAAAAAAAAAAAAAAAAAAAAAAAAAAAAAAAAAAAAAAAAAAAAAAAAAAAAAAAAAAAAAAAAAAAAAAAAAAAAAAAAAAAAAAAAAAAAAAAAAAAAAAAAAAAAAAAAAAAAAAAAAAAAAAAAAAAAAAAAAAAAAAAAAAAAAAAAAAAAAAAAAAAAAAAAAAAAAAAAAAAAAAAAAAAAAAAAAAAAAAAAAAAAAAAAAAAAAAAAAAAAAAAAAAAAAAAAAAAAAAAAAAAAAAAAAAAAAAAAAAAAAAAAAAAAAAAAAAAAAAAAAAAAAAAAAAAAAAAAAAAAAAAAAAAAAAAAAAAAAAAAAAAAAAAAAAAAAAAAAAAAAAAAAAAAAAAAAAAAAAAAAAAAAAAAAAAAAAAAAAAAAAAAAAAAAAAAAAAAAAAAAAAAAAAAAAAAAAAAAAAAAAAAAAAAAAAAAAAAAAAAAAAAAAAAAAAAAAAAAAAAAAAAAAAAAAAAAAAAAAAAAAAAAAAAAAAAAAAAAAAAAAAAAAAAAAAAAAAAAAAAAAAAAAAAAAAAAAAAAAAAAAAAAAAAAAAAAAAAAAAAAAAAAAAAAAAAAAAAAAAAAAAAAAAAAAAAAAAAAAAAAAAAAAAAAAAAAAAAAAAAAAAAAAAAAAAAAAAAAAAAAAAAAAAAAAAAAAAAAAAAAAAAAAAAAAAAAAAAAAAAAAAAAAAAAAAAAAAAAAAAAAAAAAAAAAAAAAAAAAAAAAAAAAAAAAAAAAAAAAAAAAAAAAAAAAAAAAAAAAAAAAAAAAAAAAAAAAAAAAAAAAAAAAAAAAAAAAAAAAAAAAAAAAAAAAAAAAAAAAAAAAAAAAAAAAAAAAAAAAAAAAAAAAAAAAAAAAAAAAAAAAAAAAAAAAAAAAAAAAAAAAAAAAAAAAAAAAAAAAAAAAAAAAAAAAAAAAAAAAAAAAAAAAAAAAAAAAAAAAAAAAAAAAAAAAAAAAAAAAAAAAAAAAAAAAAAAAAAAAAAAAAAAAAAAAAAAAAAAAAAAAAAAAAAAAAAAAAAAAAAAAAAAAAAAAAAAAAAAAAAAAAAAAAAAAAAAAAAAAAAAAAAAAAAAAAAAAAAAAAAAAAAAAAAAAAAAAAAAAAAAAAAAAAAAAAAAAAAAAAAAAAAAAAAAAAAAAAAAAAAAAAAAAAAAAAAAAAAAAAAAAAAAAAAAAAAAAAAAAAAAAAAAAAAAAAAAAAAAAAAAAAAAAAAAAAAAAAAAAAAAAAAAAAAAAAAAAAAAAAAAAAAAAAAAAAAAAAAAAAAAAAAAAAAAAAAAAAAAAAAAAAAAAAAAAAAAAAAAAAAAAAAAAAAAAAAAAAAAAAAAAAAAAAAAAAAAAAAAAAAAAAAAAAAAAAAAAAAAAAAAAAAAAAAAAAAAAAAAAAAAAAAAAAAAAAAAAAAAAAAAAAAAAAAAAAAAAAAAAAAAAAAAAAAAAAAAAAAAAAAAAAAAAAAAAAAAAAAAAAAAAAAAAAAAAAAAAAAAAAAAAAAAAAAAAAAAAAAAAAAAAAAAAAAAAAAAAAAAAAAAAAAAAAAAAAAAAAAAAAAAAAAAAAAAAAAAAAAAAAAAAAAAAAAAAAAAAAAAAAAAAAAAAAAAAAAAAAAAAAAAAAAAAAAAAAAAAAAAAAAAAAAAAAAAAAAAAAAAAAAAAAAAAAAAAAAAAAAAAAAAAAAAAAAAAAAAAAAAAAAAAAAAAAAAAAAAAAAAAAAAAAAAAAAAAAAAAAAAAAAAAAAAAAAAAAAAAAAAAAAAAAAAAAAAAAAAAAAAAAAAAAAAAAAAAAAAAAAAAAAAAAAAAAAAAAAAAAAAAAAAAAAAAAAAAAAAAAAAAAAAAAAAAAAAAAAAAAAAAAAAAAAAAAAAAAAAAAAAAAAAAAAAAAAAAAAAAAAAAAAAAAAAAAAAAAAAAAAAAAAAAAAAAAAAAAAAAAAAAAAAAAAAAAAAAAAAAAAAAAAAAAAAAAAAAAAAAAAAAAAAAAAAAAAAAAAAAAAAAAAAAAAAAAAAAAAAAAAAAAAAAAAAAAAAAAAAAAAAAAAAAAAAAAAAAAAAAAAAAAAAAAAAAAAAAAAAAAAAAAAAAAAAAAAAAAAAAAAAAAAAAAAAAAAAAAAAAAAAAAAAAAAAAAAAAAAAAAAAAAAAAAAAAAAAAAAAAAAAAAAAAAAAAAAAAAAAAAAAAAAAAAAAAAAAAAAAAAAAAAAAAAAAAAAAAAAAAAAAAAAAAAAAAAAAAAAAAAAAAAAAAAAAAAAAAAAAAAAAAAAAAAAAAAAAAAAAAAAAAAAAAAAAAAAAAAAAAAAAAAAAAAAAAAAAAAAAAAAAAAAAAAAAAAAAAAAAAAAAAAAAAAAAAAAAAAAAAAAAAAAAAAAAAAAAAAAAAAAAAAAAAAAAAAAAAAAAAAAAAAAAAAAAAAAAAAAAAAAAAAAAAAAAAAAAAAAAAAAAAAAAAAAAAAAAAAAAAAAAAAAAAAAAAAAAAAAAAAAAAAAAAAAAAAAAAAAAAAAAAAAAAAAAAAAAAAAAAAAAAAAAAAAAAAAAAAAAAAAAAAAAAAAAAAAAAAAAAAAAAAAAAAAAAAAAAAAAAAAAAAAAAAAAAAAAAAAAAAAAAAAAAAAAAAAAAAAAAAAAAAAAAAAAAAAAAAAAAAAAAAAAAAAAAAAAAAAAAAAAAAAAAAAAAAAAAAAAAAAAAAAAAAAAAAAAAAAAAAAAAAAAAAAAAAAAAAAAAAAAAAAAAAAAAAAAAAAAAAAAAAAAAAAAAAAAAAAAAAAAAAAAAAAAAAAAAAAAPZYQMvTYc39vhoWYkirFx4BoybRVlWjOegJ/g+lIrDByK+yafhMNFhhJK/S83OKFMTpd0ZuU8K4cu1AagbS4lwwbZQ=</c2pa:manifest></metadata>
<path fill-rule="evenodd" clip-rule="evenodd" d="M673.423 14.5833H57.6969C50.9769 14.5833 45.1269 19.1757 43.5312 25.7038L15.0137 142.37C12.7685 151.556 19.7238 160.417 29.1794 160.417H626.329C633.049 160.417 638.899 155.824 640.495 149.296L673.423 14.5833ZM57.6969 0C44.2568 0 32.5569 9.18476 29.3655 22.2409L0.848018 138.908C-3.64253 157.279 10.2681 175 29.1794 175H626.329C639.769 175 651.469 165.815 654.66 152.759L692 0H57.6969Z" fill="#FFFFFF"></path>
<path d="M71.745 93.4337C71.9145 65.5749 94.6238 43.0865 122.756 43.0865C148.347 43.0865 165.802 60.0367 165.802 82.0216C165.633 109.88 142.923 132.369 114.791 132.369C89.3702 132.201 71.745 115.419 71.745 93.4337ZM136.822 84.3712C136.822 75.3087 131.23 68.2601 120.892 68.2601C108.69 68.2601 100.894 80.0077 100.894 90.9163C100.894 99.9788 106.487 107.027 116.825 107.027C129.027 107.027 136.822 95.2797 136.822 84.3712Z" fill="#FFFFFF"></path>
<path d="M169.871 94.7768C169.871 71.2815 188.004 42.9192 225.458 42.9192C244.1 42.9192 257.319 52.8209 261.047 67.925L235.118 79.1692C233.762 72.7919 228 68.4285 221.56 68.7641C208.511 68.7641 200.037 80.5118 200.037 92.2595C200.037 101.658 205.968 107.028 213.595 107.028C220.374 107.028 225.797 103.839 230.542 98.1333L250.54 113.909C241.897 125.153 229.186 132.705 210.714 132.705C186.818 132.369 169.871 117.769 169.871 94.7768Z" fill="#FFFFFF"></path>
<path d="M289.01 68.9309H263.419L270.029 44.5964H350.02L343.41 68.9309H317.82L301.042 130.522H272.062L289.01 68.9309Z" fill="#FFFFFF"></path>
<path d="M378.179 44.0953H406.989L420.208 130.525H389.364L387.839 118.945H357.504L350.047 130.525H318.355L378.179 44.0953ZM386.144 98.6381L383.772 77.828L370.214 98.6381H386.144Z" fill="#FFFFFF"></path>
<path d="M450.186 44.7638H477.301L496.96 85.7128L508.145 44.7638H536.956L513.568 130.69H487.809L467.303 88.0623L455.609 130.69H426.799L450.186 44.7638Z" fill="#FFFFFF"></path>
<path d="M549.084 44.764H622.974L616.534 68.2594H571.116L568.743 76.9862H611.111L605.688 97.6285H563.32L560.778 107.027H606.875L600.604 130.522H526.036L549.084 44.764Z" fill="#FFFFFF"></path>
<path fill-rule="evenodd" clip-rule="evenodd" d="M677.757 161.829H674.384V168.414H671.488V151.893H677.18C678.536 151.893 679.709 152.075 680.694 152.438C681.682 152.802 682.444 153.354 682.976 154.094C683.511 154.822 683.779 155.744 683.779 156.861C683.779 157.562 683.607 158.192 683.264 158.751C682.921 159.309 682.423 159.79 681.765 160.193C681.583 160.305 681.387 160.41 681.185 160.51C681.744 160.719 682.183 161.003 682.506 161.362C683.285 162.206 683.676 163.278 683.676 164.576V165.628C683.676 166.109 683.703 166.57 683.758 167.012C683.813 167.44 683.902 167.804 684.026 168.103V168.414H681.044C680.907 168.077 680.824 167.596 680.797 166.973C680.783 166.349 680.776 165.895 680.776 165.609V164.596C680.776 163.648 680.543 162.953 680.08 162.511C679.627 162.056 678.851 161.829 677.757 161.829ZM674.384 159.335V154.367H677.18C678.114 154.367 678.845 154.451 679.38 154.62C679.929 154.789 680.32 155.062 680.55 155.439C680.783 155.815 680.9 156.328 680.9 156.978C680.9 157.484 680.742 157.913 680.43 158.264C680.128 158.602 679.723 158.861 679.215 159.043C678.721 159.225 678.189 159.322 677.613 159.335H674.384ZM666.142 165.219C665.514 163.725 665.199 162.115 665.199 160.387C665.199 158.647 665.514 157.036 666.142 155.556C666.773 154.075 667.652 152.782 668.774 151.678C669.899 150.561 671.2 149.698 672.679 149.087C674.161 148.464 675.743 148.152 677.428 148.152C679.112 148.152 680.687 148.464 682.156 149.087C683.635 149.698 684.928 150.561 686.04 151.678C687.162 152.782 688.04 154.075 688.672 155.556C689.3 157.036 689.615 158.647 689.615 160.387C689.615 162.115 689.3 163.725 688.672 165.219C688.04 166.713 687.162 168.018 686.04 169.136C684.928 170.253 683.635 171.123 682.156 171.746C680.687 172.37 679.112 172.682 677.428 172.682C675.743 172.682 674.161 172.37 672.679 171.746C671.2 171.123 669.899 170.253 668.774 169.136C667.652 168.018 666.773 166.713 666.142 165.219ZM663.963 154.64C663.212 156.406 662.834 158.322 662.834 160.387C662.834 162.453 663.212 164.368 663.963 166.135C664.718 167.901 665.768 169.454 667.11 170.792C668.451 172.116 670.002 173.149 671.756 173.889C673.523 174.63 675.413 175 677.428 175C679.442 175 681.325 174.63 683.079 173.889C684.846 173.149 686.397 172.116 687.725 170.792C689.066 169.454 690.116 167.901 690.871 166.135C691.623 164.368 692 162.453 692 160.387C692 158.322 691.623 156.406 690.871 154.64C690.116 152.873 689.066 151.334 687.725 150.022C686.397 148.697 684.846 147.671 683.079 146.944C681.325 146.203 679.442 145.833 677.428 145.833C675.413 145.833 673.523 146.203 671.756 146.944C670.002 147.671 668.451 148.697 667.11 150.022C665.768 151.334 664.718 152.873 663.963 154.64Z" fill="#FFFFFF"></path>
</svg>